<?xml version="1.0" standalone="no"?>
<!DOCTYPE svg PUBLIC "-//W3C//DTD SVG 20010904//EN"
 "http://www.w3.org/TR/2001/REC-SVG-20010904/DTD/svg10.dtd">
<svg version="1.0" xmlns="http://www.w3.org/2000/svg"
 width="709.000000pt" height="709.000000pt" viewBox="0 0 709.000000 709.000000"
 preserveAspectRatio="xMidYMid meet">
<metadata>
Created by potrace 1.11, written by Peter Selinger 2001-2013
</metadata>
<g transform="translate(0.000000,709.000000) scale(0.100000,-0.100000)"
fill="#000000" stroke="none">
<path d="M3329 7086 c-2 -2 -42 -7 -89 -10 -143 -11 -168 -15 -355 -47 -89
-15 -286 -66 -400 -102 -55 -17 -104 -32 -110 -33 -5 0 -26 -8 -46 -17 -19 -9
-54 -22 -77 -29 -23 -7 -42 -16 -42 -20 0 -5 -8 -8 -18 -8 -10 0 -22 -3 -26
-7 -4 -5 -11 -8 -14 -9 -31 -4 -317 -148 -432 -219 -116 -70 -341 -226 -370
-255 -3 -3 -45 -39 -95 -80 -130 -107 -322 -301 -446 -450 -180 -217 -395
-560 -485 -772 -13 -32 -35 -81 -48 -110 -14 -29 -30 -72 -38 -96 -7 -23 -16
-42 -20 -42 -5 0 -8 -8 -8 -17 -1 -10 -8 -36 -16 -58 -8 -22 -17 -47 -19 -55
-2 -8 -4 -15 -5 -15 -1 0 -3 -7 -5 -15 -1 -8 -17 -63 -34 -122 -31 -105 -76
-313 -87 -393 -3 -22 -9 -69 -14 -105 -33 -233 -35 -681 -5 -885 3 -16 7 -48
10 -70 5 -39 35 -211 39 -230 2 -5 6 -23 10 -40 40 -163 62 -246 82 -305 9
-25 17 -49 18 -55 2 -5 6 -17 9 -25 3 -8 18 -49 33 -90 15 -41 36 -95 47 -120
10 -25 26 -61 34 -80 29 -68 108 -225 116 -228 4 -2 7 -8 7 -14 0 -37 216
-362 359 -541 106 -132 304 -339 416 -435 33 -28 71 -61 85 -73 41 -35 210
-162 275 -206 160 -107 466 -274 545 -298 14 -4 30 -11 35 -15 54 -43 526
-191 715 -225 19 -3 44 -7 55 -9 21 -4 149 -24 200 -31 138 -20 613 -27 760
-11 359 38 647 107 968 232 138 54 327 142 339 159 4 5 8 6 8 1 0 -5 9 -1 20
9 11 10 20 14 20 9 0 -5 4 -4 8 1 4 6 28 21 55 35 26 13 47 28 47 33 0 4 4 6
9 3 5 -3 14 1 21 9 7 8 17 15 22 15 11 0 193 123 276 186 97 75 106 82 128
101 12 10 48 40 80 68 89 75 412 405 397 405 -2 0 19 28 47 63 78 94 80 97 80
102 0 4 21 32 45 59 18 20 131 199 177 281 68 120 153 294 193 392 20 48 40
97 45 108 34 77 135 420 154 525 2 14 7 36 10 50 7 29 14 71 21 120 3 19 7 49
10 65 22 142 27 221 31 472 2 135 -1 225 -6 228 -7 4 -7 13 0 24 5 10 8 20 6
22 -2 2 -7 40 -11 84 -4 44 -9 87 -10 95 -7 36 -19 146 -17 153 1 4 -3 7 -9 7
-5 0 -7 5 -4 10 6 10 -6 84 -31 183 -3 12 -7 33 -10 47 -17 91 -108 375 -155
485 -7 17 -13 32 -14 35 -1 3 -9 22 -18 44 -9 21 -17 40 -17 42 0 8 -110 227
-121 240 -6 8 -8 14 -5 14 4 0 -2 13 -13 29 -12 16 -21 34 -21 40 0 6 -4 11
-9 11 -5 0 -11 8 -14 18 -8 22 -58 106 -78 130 -8 10 -18 24 -21 32 -5 13
-122 179 -154 219 -100 125 -201 238 -299 336 -137 137 -167 165 -285 258 -47
38 -93 75 -103 82 -17 15 -215 149 -252 172 -120 74 -175 104 -284 158 -69 35
-148 72 -176 83 -27 11 -68 28 -90 38 -22 10 -42 18 -45 19 -3 0 -18 5 -35 12
-54 20 -70 26 -80 28 -5 2 -55 17 -110 34 -177 56 -145 48 -328 86 -107 22
-263 48 -372 60 -50 6 -561 16 -566 11z"/>
</g>
</svg>
